<?xml version="1.0" encoding="utf-8"?><!--Generator: Adobe Illustrator 24.0.1, SVG Export Plug-In . SVG Version: 6.00 Build 0)--><svg version="1.1" id="圖層_1" xmlns="http://www.w3.org/2000/svg" xmlns:xlink="http://www.w3.org/1999/xlink" x="0px" y="0px" viewBox="0 0 100 100" enable-background="new 0 0 100 100" xml:space="preserve"><rect x="55.25" y="67.27" fill="#F5E169" stroke="#000000" stroke-width="3.5" stroke-linecap="round" stroke-linejoin="round" stroke-miterlimit="10" width="9.5" height="27.73"/><rect x="72.58" y="40.16" fill="#F5E169" stroke="#000000" stroke-width="3.5" stroke-linecap="round" stroke-linejoin="round" stroke-miterlimit="10" width="9.5" height="28.11"/><rect x="17.91" y="40.16" fill="#F5E169" stroke="#000000" stroke-width="3.5" stroke-linecap="round" stroke-linejoin="round" stroke-miterlimit="10" width="9.5" height="28.11"/><rect x="35.25" y="67.27" fill="#F5E169" stroke="#000000" stroke-width="3.5" stroke-linecap="round" stroke-linejoin="round" stroke-miterlimit="10" width="9.5" height="27.73"/><path fill="#689991" stroke="#000000" stroke-width="3.5" stroke-linecap="round" stroke-linejoin="round" stroke-miterlimit="10" d=" M40,85.34c-5.34,0-9.66,4.33-9.66,9.66h19.32C49.66,89.67,45.34,85.34,40,85.34z"/><path fill="#689991" stroke="#000000" stroke-width="3.5" stroke-linecap="round" stroke-linejoin="round" stroke-miterlimit="10" d=" M60,85.34c-5.34,0-9.66,4.33-9.66,9.66h19.32C69.66,89.67,65.34,85.34,60,85.34z"/><rect x="27.42" y="38.39" fill="#E15C64" stroke="#000000" stroke-width="3.5" stroke-linecap="round" stroke-linejoin="round" stroke-miterlimit="10" width="45.17" height="36.13"/><path fill="#689991" stroke="#000000" stroke-width="3.5" stroke-linecap="round" stroke-linejoin="round" stroke-miterlimit="10" d=" M73.34,25c0-4.31-3.91-7.8-8.72-7.8v15.6C69.43,32.79,73.34,29.3,73.34,25z"/><path fill="#689991" stroke="#000000" stroke-width="3.5" stroke-linecap="round" stroke-linejoin="round" stroke-miterlimit="10" d=" M26.66,25c0-4.31,3.91-7.8,8.72-7.8v15.6C30.57,32.79,26.66,29.3,26.66,25z"/><rect x="33.81" y="12.49" fill="#F5E169" stroke="#000000" stroke-width="3.5" stroke-linecap="round" stroke-linejoin="round" stroke-miterlimit="10" width="32.37" height="25.9"/><line fill="none" stroke="#000000" stroke-width="3.5" stroke-linecap="round" stroke-linejoin="round" stroke-miterlimit="10" x1="56.35" y1="22.25" x2="56.35" y2="26.55"/><line fill="none" stroke="#000000" stroke-width="3.5" stroke-linecap="round" stroke-linejoin="round" stroke-miterlimit="10" x1="43.65" y1="22.25" x2="43.65" y2="26.55"/><line fill="none" stroke="#000000" stroke-width="3.5" stroke-linecap="round" stroke-linejoin="round" stroke-miterlimit="10" x1="50" y1="12.49" x2="60.74" y2="5"/><line fill="none" stroke="#000000" stroke-width="3.5" stroke-linecap="round" stroke-linejoin="round" stroke-miterlimit="10" x1="49.74" y1="12.49" x2="39" y2="5"/><metadata xmlns:d="https://loading.io/stock/">
<d:name>toy</d:name>
<d:tags>toy,robot,game,machine,engineer,childlike</d:tags>
<d:license>by</d:license>
<d:slug>s16obq</d:slug>
</metadata></svg>